<mxfile host="app.diagrams.net" modified="2020-10-26T05:07:03.130Z" agent="5.0 (Windows NT 10.0; Win64; x64) AppleWebKit/537.36 (KHTML, like Gecko) Chrome/86.0.4240.111 Safari/537.36" etag="PF6JlQvV7Lmdn7smhloS" version="13.6.9" type="github">
  <diagram name="Page-1" id="74e2e168-ea6b-b213-b513-2b3c1d86103e">
    <mxGraphModel dx="1422" dy="737" grid="1" gridSize="10" guides="1" tooltips="1" connect="1" arrows="1" fold="1" page="1" pageScale="1" pageWidth="1100" pageHeight="850" background="#ffffff" math="0" shadow="0">
      <root>
        <mxCell id="0" />
        <mxCell id="1" parent="0" />
        <mxCell id="7-38Q2xxGo5Xg0WkYfj3-104" style="edgeStyle=orthogonalEdgeStyle;rounded=0;orthogonalLoop=1;jettySize=auto;html=1;entryX=0.5;entryY=0;entryDx=0;entryDy=0;entryPerimeter=0;" edge="1" parent="1" source="7-38Q2xxGo5Xg0WkYfj3-5" target="7-38Q2xxGo5Xg0WkYfj3-7">
          <mxGeometry relative="1" as="geometry" />
        </mxCell>
        <mxCell id="7-38Q2xxGo5Xg0WkYfj3-5" value="Tag_cache==Tag_cpu_Address" style="shape=process;whiteSpace=wrap;html=1;backgroundOutline=1;" vertex="1" parent="1">
          <mxGeometry x="415" y="120" width="220" height="30" as="geometry" />
        </mxCell>
        <mxCell id="7-38Q2xxGo5Xg0WkYfj3-51" style="edgeStyle=orthogonalEdgeStyle;rounded=0;orthogonalLoop=1;jettySize=auto;html=1;entryX=0.5;entryY=0;entryDx=0;entryDy=0;" edge="1" parent="1" source="7-38Q2xxGo5Xg0WkYfj3-7" target="7-38Q2xxGo5Xg0WkYfj3-15">
          <mxGeometry relative="1" as="geometry" />
        </mxCell>
        <mxCell id="7-38Q2xxGo5Xg0WkYfj3-54" value="1" style="edgeLabel;html=1;align=center;verticalAlign=middle;resizable=0;points=[];" vertex="1" connectable="0" parent="7-38Q2xxGo5Xg0WkYfj3-51">
          <mxGeometry x="-0.0047" relative="1" as="geometry">
            <mxPoint as="offset" />
          </mxGeometry>
        </mxCell>
        <mxCell id="7-38Q2xxGo5Xg0WkYfj3-86" style="edgeStyle=orthogonalEdgeStyle;rounded=0;orthogonalLoop=1;jettySize=auto;html=1;entryX=0.5;entryY=0;entryDx=0;entryDy=0;" edge="1" parent="1" source="7-38Q2xxGo5Xg0WkYfj3-7" target="7-38Q2xxGo5Xg0WkYfj3-82">
          <mxGeometry relative="1" as="geometry">
            <Array as="points">
              <mxPoint x="700" y="205" />
            </Array>
          </mxGeometry>
        </mxCell>
        <mxCell id="7-38Q2xxGo5Xg0WkYfj3-87" value="0" style="edgeLabel;html=1;align=center;verticalAlign=middle;resizable=0;points=[];" vertex="1" connectable="0" parent="7-38Q2xxGo5Xg0WkYfj3-86">
          <mxGeometry x="-0.5657" y="3" relative="1" as="geometry">
            <mxPoint as="offset" />
          </mxGeometry>
        </mxCell>
        <mxCell id="7-38Q2xxGo5Xg0WkYfj3-7" value="" style="strokeWidth=2;html=1;shape=mxgraph.flowchart.decision;whiteSpace=wrap;" vertex="1" parent="1">
          <mxGeometry x="510" y="190" width="30" height="30" as="geometry" />
        </mxCell>
        <mxCell id="7-38Q2xxGo5Xg0WkYfj3-50" style="edgeStyle=orthogonalEdgeStyle;rounded=0;orthogonalLoop=1;jettySize=auto;html=1;" edge="1" parent="1" source="7-38Q2xxGo5Xg0WkYfj3-15" target="7-38Q2xxGo5Xg0WkYfj3-18">
          <mxGeometry relative="1" as="geometry" />
        </mxCell>
        <mxCell id="7-38Q2xxGo5Xg0WkYfj3-15" value="write_read [1:0]" style="shape=process;whiteSpace=wrap;html=1;backgroundOutline=1;" vertex="1" parent="1">
          <mxGeometry x="270" y="230" width="110" height="20" as="geometry" />
        </mxCell>
        <mxCell id="7-38Q2xxGo5Xg0WkYfj3-43" style="edgeStyle=orthogonalEdgeStyle;rounded=0;orthogonalLoop=1;jettySize=auto;html=1;entryX=0.5;entryY=0;entryDx=0;entryDy=0;" edge="1" parent="1" source="7-38Q2xxGo5Xg0WkYfj3-18" target="7-38Q2xxGo5Xg0WkYfj3-23">
          <mxGeometry relative="1" as="geometry" />
        </mxCell>
        <mxCell id="7-38Q2xxGo5Xg0WkYfj3-55" value="write=2" style="edgeLabel;html=1;align=center;verticalAlign=middle;resizable=0;points=[];" vertex="1" connectable="0" parent="7-38Q2xxGo5Xg0WkYfj3-43">
          <mxGeometry x="0.0105" y="3" relative="1" as="geometry">
            <mxPoint as="offset" />
          </mxGeometry>
        </mxCell>
        <mxCell id="7-38Q2xxGo5Xg0WkYfj3-44" style="edgeStyle=orthogonalEdgeStyle;rounded=0;orthogonalLoop=1;jettySize=auto;html=1;entryX=0.5;entryY=0;entryDx=0;entryDy=0;" edge="1" parent="1" source="7-38Q2xxGo5Xg0WkYfj3-18" target="7-38Q2xxGo5Xg0WkYfj3-27">
          <mxGeometry relative="1" as="geometry" />
        </mxCell>
        <mxCell id="7-38Q2xxGo5Xg0WkYfj3-45" value="write=2" style="edgeLabel;html=1;align=center;verticalAlign=middle;resizable=0;points=[];" vertex="1" connectable="0" parent="7-38Q2xxGo5Xg0WkYfj3-44">
          <mxGeometry x="0.0824" y="2" relative="1" as="geometry">
            <mxPoint as="offset" />
          </mxGeometry>
        </mxCell>
        <mxCell id="7-38Q2xxGo5Xg0WkYfj3-18" value="" style="strokeWidth=2;html=1;shape=mxgraph.flowchart.decision;whiteSpace=wrap;" vertex="1" parent="1">
          <mxGeometry x="310" y="290" width="30" height="30" as="geometry" />
        </mxCell>
        <mxCell id="7-38Q2xxGo5Xg0WkYfj3-81" style="edgeStyle=orthogonalEdgeStyle;rounded=0;orthogonalLoop=1;jettySize=auto;html=1;" edge="1" parent="1" source="7-38Q2xxGo5Xg0WkYfj3-19" target="7-38Q2xxGo5Xg0WkYfj3-22">
          <mxGeometry relative="1" as="geometry" />
        </mxCell>
        <mxCell id="7-38Q2xxGo5Xg0WkYfj3-19" value="dirty_bit" style="shape=process;whiteSpace=wrap;html=1;backgroundOutline=1;" vertex="1" parent="1">
          <mxGeometry x="660" y="270" width="80" height="20" as="geometry" />
        </mxCell>
        <mxCell id="7-38Q2xxGo5Xg0WkYfj3-48" value="0" style="edgeStyle=orthogonalEdgeStyle;rounded=0;orthogonalLoop=1;jettySize=auto;html=1;entryX=0.5;entryY=0;entryDx=0;entryDy=0;" edge="1" parent="1" source="7-38Q2xxGo5Xg0WkYfj3-22" target="7-38Q2xxGo5Xg0WkYfj3-64">
          <mxGeometry relative="1" as="geometry">
            <mxPoint x="900" y="335" as="targetPoint" />
            <Array as="points">
              <mxPoint x="895" y="335" />
            </Array>
          </mxGeometry>
        </mxCell>
        <mxCell id="7-38Q2xxGo5Xg0WkYfj3-49" style="edgeStyle=orthogonalEdgeStyle;rounded=0;orthogonalLoop=1;jettySize=auto;html=1;entryX=0.5;entryY=0;entryDx=0;entryDy=0;" edge="1" parent="1" source="7-38Q2xxGo5Xg0WkYfj3-22" target="7-38Q2xxGo5Xg0WkYfj3-31">
          <mxGeometry relative="1" as="geometry" />
        </mxCell>
        <mxCell id="7-38Q2xxGo5Xg0WkYfj3-61" value="1" style="edgeLabel;html=1;align=center;verticalAlign=middle;resizable=0;points=[];" vertex="1" connectable="0" parent="7-38Q2xxGo5Xg0WkYfj3-49">
          <mxGeometry x="-0.4844" y="-4" relative="1" as="geometry">
            <mxPoint as="offset" />
          </mxGeometry>
        </mxCell>
        <mxCell id="7-38Q2xxGo5Xg0WkYfj3-22" value="" style="strokeWidth=2;html=1;shape=mxgraph.flowchart.decision;whiteSpace=wrap;" vertex="1" parent="1">
          <mxGeometry x="685" y="320" width="30" height="30" as="geometry" />
        </mxCell>
        <mxCell id="7-38Q2xxGo5Xg0WkYfj3-60" style="edgeStyle=orthogonalEdgeStyle;rounded=0;orthogonalLoop=1;jettySize=auto;html=1;entryX=0.5;entryY=0;entryDx=0;entryDy=0;entryPerimeter=0;" edge="1" parent="1" source="7-38Q2xxGo5Xg0WkYfj3-23" target="7-38Q2xxGo5Xg0WkYfj3-26">
          <mxGeometry relative="1" as="geometry" />
        </mxCell>
        <mxCell id="7-38Q2xxGo5Xg0WkYfj3-23" value="dirty_bit" style="shape=process;whiteSpace=wrap;html=1;backgroundOutline=1;" vertex="1" parent="1">
          <mxGeometry x="190" y="325" width="80" height="20" as="geometry" />
        </mxCell>
        <mxCell id="7-38Q2xxGo5Xg0WkYfj3-77" style="edgeStyle=orthogonalEdgeStyle;rounded=0;orthogonalLoop=1;jettySize=auto;html=1;entryX=0.5;entryY=0;entryDx=0;entryDy=0;" edge="1" parent="1" source="7-38Q2xxGo5Xg0WkYfj3-26" target="7-38Q2xxGo5Xg0WkYfj3-75">
          <mxGeometry relative="1" as="geometry" />
        </mxCell>
        <mxCell id="7-38Q2xxGo5Xg0WkYfj3-135" value="0" style="edgeLabel;html=1;align=center;verticalAlign=middle;resizable=0;points=[];" vertex="1" connectable="0" parent="7-38Q2xxGo5Xg0WkYfj3-77">
          <mxGeometry x="-0.5345" relative="1" as="geometry">
            <mxPoint as="offset" />
          </mxGeometry>
        </mxCell>
        <mxCell id="7-38Q2xxGo5Xg0WkYfj3-78" style="edgeStyle=orthogonalEdgeStyle;rounded=0;orthogonalLoop=1;jettySize=auto;html=1;entryX=0.5;entryY=0;entryDx=0;entryDy=0;" edge="1" parent="1" source="7-38Q2xxGo5Xg0WkYfj3-26" target="7-38Q2xxGo5Xg0WkYfj3-76">
          <mxGeometry relative="1" as="geometry">
            <Array as="points">
              <mxPoint x="290" y="410" />
            </Array>
          </mxGeometry>
        </mxCell>
        <mxCell id="7-38Q2xxGo5Xg0WkYfj3-134" value="1" style="edgeLabel;html=1;align=center;verticalAlign=middle;resizable=0;points=[];" vertex="1" connectable="0" parent="7-38Q2xxGo5Xg0WkYfj3-78">
          <mxGeometry x="0.0133" y="2" relative="1" as="geometry">
            <mxPoint as="offset" />
          </mxGeometry>
        </mxCell>
        <mxCell id="7-38Q2xxGo5Xg0WkYfj3-26" value="" style="strokeWidth=2;html=1;shape=mxgraph.flowchart.decision;whiteSpace=wrap;" vertex="1" parent="1">
          <mxGeometry x="215" y="395" width="30" height="30" as="geometry" />
        </mxCell>
        <mxCell id="7-38Q2xxGo5Xg0WkYfj3-139" style="edgeStyle=orthogonalEdgeStyle;rounded=0;orthogonalLoop=1;jettySize=auto;html=1;" edge="1" parent="1" source="7-38Q2xxGo5Xg0WkYfj3-27">
          <mxGeometry relative="1" as="geometry">
            <mxPoint x="290" y="580" as="targetPoint" />
            <Array as="points">
              <mxPoint x="390" y="570" />
              <mxPoint x="290" y="570" />
            </Array>
          </mxGeometry>
        </mxCell>
        <mxCell id="7-38Q2xxGo5Xg0WkYfj3-27" value="Read from Cache" style="shape=process;whiteSpace=wrap;html=1;backgroundOutline=1;" vertex="1" parent="1">
          <mxGeometry x="350" y="450" width="80" height="25" as="geometry" />
        </mxCell>
        <mxCell id="7-38Q2xxGo5Xg0WkYfj3-56" value="" style="edgeStyle=orthogonalEdgeStyle;rounded=0;orthogonalLoop=1;jettySize=auto;html=1;" edge="1" parent="1" source="7-38Q2xxGo5Xg0WkYfj3-31" target="7-38Q2xxGo5Xg0WkYfj3-34">
          <mxGeometry relative="1" as="geometry" />
        </mxCell>
        <mxCell id="7-38Q2xxGo5Xg0WkYfj3-31" value="write_read [1:0]" style="shape=process;whiteSpace=wrap;html=1;backgroundOutline=1;" vertex="1" parent="1">
          <mxGeometry x="540" y="360" width="115" height="20" as="geometry" />
        </mxCell>
        <mxCell id="7-38Q2xxGo5Xg0WkYfj3-88" style="edgeStyle=orthogonalEdgeStyle;rounded=0;orthogonalLoop=1;jettySize=auto;html=1;entryX=0.5;entryY=0;entryDx=0;entryDy=0;" edge="1" parent="1" source="7-38Q2xxGo5Xg0WkYfj3-34" target="7-38Q2xxGo5Xg0WkYfj3-91">
          <mxGeometry relative="1" as="geometry">
            <mxPoint x="550" y="500" as="targetPoint" />
            <Array as="points">
              <mxPoint x="550" y="445" />
            </Array>
          </mxGeometry>
        </mxCell>
        <mxCell id="7-38Q2xxGo5Xg0WkYfj3-118" value="read" style="edgeLabel;html=1;align=center;verticalAlign=middle;resizable=0;points=[];" vertex="1" connectable="0" parent="7-38Q2xxGo5Xg0WkYfj3-88">
          <mxGeometry x="-0.2229" y="2" relative="1" as="geometry">
            <mxPoint as="offset" />
          </mxGeometry>
        </mxCell>
        <mxCell id="7-38Q2xxGo5Xg0WkYfj3-106" style="edgeStyle=orthogonalEdgeStyle;rounded=0;orthogonalLoop=1;jettySize=auto;html=1;entryX=0.5;entryY=0;entryDx=0;entryDy=0;" edge="1" parent="1" source="7-38Q2xxGo5Xg0WkYfj3-34" target="7-38Q2xxGo5Xg0WkYfj3-100">
          <mxGeometry relative="1" as="geometry" />
        </mxCell>
        <mxCell id="7-38Q2xxGo5Xg0WkYfj3-117" value="write" style="edgeLabel;html=1;align=center;verticalAlign=middle;resizable=0;points=[];" vertex="1" connectable="0" parent="7-38Q2xxGo5Xg0WkYfj3-106">
          <mxGeometry x="-0.445" y="-5" relative="1" as="geometry">
            <mxPoint x="1" as="offset" />
          </mxGeometry>
        </mxCell>
        <mxCell id="7-38Q2xxGo5Xg0WkYfj3-34" value="" style="strokeWidth=2;html=1;shape=mxgraph.flowchart.decision;whiteSpace=wrap;" vertex="1" parent="1">
          <mxGeometry x="582.5" y="430" width="30" height="30" as="geometry" />
        </mxCell>
        <mxCell id="7-38Q2xxGo5Xg0WkYfj3-63" style="edgeStyle=orthogonalEdgeStyle;rounded=0;orthogonalLoop=1;jettySize=auto;html=1;entryX=0.5;entryY=0;entryDx=0;entryDy=0;entryPerimeter=0;" edge="1" parent="1" source="7-38Q2xxGo5Xg0WkYfj3-64" target="7-38Q2xxGo5Xg0WkYfj3-65">
          <mxGeometry relative="1" as="geometry" />
        </mxCell>
        <mxCell id="7-38Q2xxGo5Xg0WkYfj3-64" value="write_read [1:0]" style="shape=process;whiteSpace=wrap;html=1;backgroundOutline=1;" vertex="1" parent="1">
          <mxGeometry x="840" y="360" width="110" height="20" as="geometry" />
        </mxCell>
        <mxCell id="7-38Q2xxGo5Xg0WkYfj3-122" style="edgeStyle=orthogonalEdgeStyle;rounded=0;orthogonalLoop=1;jettySize=auto;html=1;entryX=0.5;entryY=0;entryDx=0;entryDy=0;" edge="1" parent="1" source="7-38Q2xxGo5Xg0WkYfj3-65" target="7-38Q2xxGo5Xg0WkYfj3-116">
          <mxGeometry relative="1" as="geometry">
            <Array as="points">
              <mxPoint x="823" y="445" />
              <mxPoint x="823" y="470" />
            </Array>
          </mxGeometry>
        </mxCell>
        <mxCell id="7-38Q2xxGo5Xg0WkYfj3-126" value="read" style="edgeLabel;html=1;align=center;verticalAlign=middle;resizable=0;points=[];" vertex="1" connectable="0" parent="7-38Q2xxGo5Xg0WkYfj3-122">
          <mxGeometry x="-0.0197" y="2" relative="1" as="geometry">
            <mxPoint as="offset" />
          </mxGeometry>
        </mxCell>
        <mxCell id="7-38Q2xxGo5Xg0WkYfj3-131" style="edgeStyle=orthogonalEdgeStyle;rounded=0;orthogonalLoop=1;jettySize=auto;html=1;entryX=0.5;entryY=0;entryDx=0;entryDy=0;" edge="1" parent="1" source="7-38Q2xxGo5Xg0WkYfj3-65" target="7-38Q2xxGo5Xg0WkYfj3-127">
          <mxGeometry relative="1" as="geometry">
            <Array as="points">
              <mxPoint x="968" y="445" />
            </Array>
          </mxGeometry>
        </mxCell>
        <mxCell id="7-38Q2xxGo5Xg0WkYfj3-65" value="" style="strokeWidth=2;html=1;shape=mxgraph.flowchart.decision;whiteSpace=wrap;" vertex="1" parent="1">
          <mxGeometry x="880" y="430" width="30" height="30" as="geometry" />
        </mxCell>
        <mxCell id="7-38Q2xxGo5Xg0WkYfj3-137" style="edgeStyle=orthogonalEdgeStyle;rounded=0;orthogonalLoop=1;jettySize=auto;html=1;entryX=0.43;entryY=0.033;entryDx=0;entryDy=0;entryPerimeter=0;" edge="1" parent="1" source="7-38Q2xxGo5Xg0WkYfj3-75" target="7-38Q2xxGo5Xg0WkYfj3-136">
          <mxGeometry relative="1" as="geometry">
            <Array as="points">
              <mxPoint x="110" y="752" />
            </Array>
          </mxGeometry>
        </mxCell>
        <mxCell id="7-38Q2xxGo5Xg0WkYfj3-75" value="overwrite" style="shape=process;whiteSpace=wrap;html=1;backgroundOutline=1;" vertex="1" parent="1">
          <mxGeometry x="80" y="452.5" width="80" height="20" as="geometry" />
        </mxCell>
        <mxCell id="7-38Q2xxGo5Xg0WkYfj3-138" style="edgeStyle=orthogonalEdgeStyle;rounded=0;orthogonalLoop=1;jettySize=auto;html=1;entryX=0.5;entryY=0;entryDx=0;entryDy=0;entryPerimeter=0;" edge="1" parent="1" source="7-38Q2xxGo5Xg0WkYfj3-76" target="7-38Q2xxGo5Xg0WkYfj3-136">
          <mxGeometry relative="1" as="geometry" />
        </mxCell>
        <mxCell id="7-38Q2xxGo5Xg0WkYfj3-76" value="write&lt;br&gt;dirty_bit=1" style="shape=process;whiteSpace=wrap;html=1;backgroundOutline=1;" vertex="1" parent="1">
          <mxGeometry x="245" y="440" width="90" height="35" as="geometry" />
        </mxCell>
        <mxCell id="7-38Q2xxGo5Xg0WkYfj3-105" style="edgeStyle=orthogonalEdgeStyle;rounded=0;orthogonalLoop=1;jettySize=auto;html=1;entryX=0.5;entryY=0;entryDx=0;entryDy=0;" edge="1" parent="1" source="7-38Q2xxGo5Xg0WkYfj3-79" target="7-38Q2xxGo5Xg0WkYfj3-5">
          <mxGeometry relative="1" as="geometry" />
        </mxCell>
        <mxCell id="7-38Q2xxGo5Xg0WkYfj3-79" value="Request&lt;br&gt;Transaction" style="shape=tapeData;whiteSpace=wrap;html=1;perimeter=ellipsePerimeter;" vertex="1" parent="1">
          <mxGeometry x="485" y="20" width="80" height="80" as="geometry" />
        </mxCell>
        <mxCell id="7-38Q2xxGo5Xg0WkYfj3-85" style="edgeStyle=orthogonalEdgeStyle;rounded=0;orthogonalLoop=1;jettySize=auto;html=1;entryX=0.5;entryY=0;entryDx=0;entryDy=0;" edge="1" parent="1" source="7-38Q2xxGo5Xg0WkYfj3-82" target="7-38Q2xxGo5Xg0WkYfj3-19">
          <mxGeometry relative="1" as="geometry" />
        </mxCell>
        <mxCell id="7-38Q2xxGo5Xg0WkYfj3-82" value="load address_to_mem from cache [1:0]" style="shape=process;whiteSpace=wrap;html=1;backgroundOutline=1;" vertex="1" parent="1">
          <mxGeometry x="622.5" y="225" width="155" height="30" as="geometry" />
        </mxCell>
        <mxCell id="7-38Q2xxGo5Xg0WkYfj3-113" style="edgeStyle=orthogonalEdgeStyle;rounded=0;orthogonalLoop=1;jettySize=auto;html=1;entryX=0.5;entryY=0;entryDx=0;entryDy=0;" edge="1" parent="1" source="7-38Q2xxGo5Xg0WkYfj3-91" target="7-38Q2xxGo5Xg0WkYfj3-108">
          <mxGeometry relative="1" as="geometry" />
        </mxCell>
        <mxCell id="7-38Q2xxGo5Xg0WkYfj3-91" value="write_cache in memory" style="shape=process;whiteSpace=wrap;html=1;backgroundOutline=1;" vertex="1" parent="1">
          <mxGeometry x="493" y="570" width="115" height="30" as="geometry" />
        </mxCell>
        <mxCell id="7-38Q2xxGo5Xg0WkYfj3-96" style="edgeStyle=orthogonalEdgeStyle;rounded=0;orthogonalLoop=1;jettySize=auto;html=1;entryX=0.5;entryY=0;entryDx=0;entryDy=0;" edge="1" parent="1" source="7-38Q2xxGo5Xg0WkYfj3-92" target="7-38Q2xxGo5Xg0WkYfj3-93">
          <mxGeometry relative="1" as="geometry" />
        </mxCell>
        <mxCell id="7-38Q2xxGo5Xg0WkYfj3-92" value="write_block in cache" style="shape=process;whiteSpace=wrap;html=1;backgroundOutline=1;" vertex="1" parent="1">
          <mxGeometry x="493" y="670" width="115" height="30" as="geometry" />
        </mxCell>
        <mxCell id="7-38Q2xxGo5Xg0WkYfj3-141" style="edgeStyle=orthogonalEdgeStyle;rounded=0;orthogonalLoop=1;jettySize=auto;html=1;" edge="1" parent="1" source="7-38Q2xxGo5Xg0WkYfj3-93">
          <mxGeometry relative="1" as="geometry">
            <mxPoint x="550.5" y="780" as="targetPoint" />
          </mxGeometry>
        </mxCell>
        <mxCell id="7-38Q2xxGo5Xg0WkYfj3-93" value="read from memory" style="shape=process;whiteSpace=wrap;html=1;backgroundOutline=1;" vertex="1" parent="1">
          <mxGeometry x="493" y="720" width="115" height="30" as="geometry" />
        </mxCell>
        <mxCell id="7-38Q2xxGo5Xg0WkYfj3-110" style="edgeStyle=orthogonalEdgeStyle;rounded=0;orthogonalLoop=1;jettySize=auto;html=1;entryX=0.5;entryY=0;entryDx=0;entryDy=0;" edge="1" parent="1" source="7-38Q2xxGo5Xg0WkYfj3-100" target="7-38Q2xxGo5Xg0WkYfj3-109">
          <mxGeometry relative="1" as="geometry" />
        </mxCell>
        <mxCell id="7-38Q2xxGo5Xg0WkYfj3-100" value="write_cache in memory" style="shape=process;whiteSpace=wrap;html=1;backgroundOutline=1;" vertex="1" parent="1">
          <mxGeometry x="630" y="570" width="115" height="30" as="geometry" />
        </mxCell>
        <mxCell id="7-38Q2xxGo5Xg0WkYfj3-121" style="edgeStyle=orthogonalEdgeStyle;rounded=0;orthogonalLoop=1;jettySize=auto;html=1;entryX=0.5;entryY=0;entryDx=0;entryDy=0;" edge="1" parent="1" source="7-38Q2xxGo5Xg0WkYfj3-102" target="7-38Q2xxGo5Xg0WkYfj3-120">
          <mxGeometry relative="1" as="geometry" />
        </mxCell>
        <mxCell id="7-38Q2xxGo5Xg0WkYfj3-102" value="write_block in cache" style="shape=process;whiteSpace=wrap;html=1;backgroundOutline=1;" vertex="1" parent="1">
          <mxGeometry x="630" y="670" width="115" height="30" as="geometry" />
        </mxCell>
        <mxCell id="7-38Q2xxGo5Xg0WkYfj3-125" style="edgeStyle=orthogonalEdgeStyle;rounded=0;orthogonalLoop=1;jettySize=auto;html=1;entryX=0.5;entryY=0;entryDx=0;entryDy=0;" edge="1" parent="1" source="7-38Q2xxGo5Xg0WkYfj3-107" target="7-38Q2xxGo5Xg0WkYfj3-124">
          <mxGeometry relative="1" as="geometry" />
        </mxCell>
        <mxCell id="7-38Q2xxGo5Xg0WkYfj3-107" value="write_block in cache" style="shape=process;whiteSpace=wrap;html=1;backgroundOutline=1;" vertex="1" parent="1">
          <mxGeometry x="765" y="550" width="115" height="30" as="geometry" />
        </mxCell>
        <mxCell id="7-38Q2xxGo5Xg0WkYfj3-114" style="edgeStyle=orthogonalEdgeStyle;rounded=0;orthogonalLoop=1;jettySize=auto;html=1;entryX=0.5;entryY=0;entryDx=0;entryDy=0;" edge="1" parent="1" source="7-38Q2xxGo5Xg0WkYfj3-108" target="7-38Q2xxGo5Xg0WkYfj3-92">
          <mxGeometry relative="1" as="geometry" />
        </mxCell>
        <mxCell id="7-38Q2xxGo5Xg0WkYfj3-108" value="write_new_tag in cache" style="shape=process;whiteSpace=wrap;html=1;backgroundOutline=1;" vertex="1" parent="1">
          <mxGeometry x="493" y="620" width="115" height="30" as="geometry" />
        </mxCell>
        <mxCell id="7-38Q2xxGo5Xg0WkYfj3-111" style="edgeStyle=orthogonalEdgeStyle;rounded=0;orthogonalLoop=1;jettySize=auto;html=1;entryX=0.5;entryY=0;entryDx=0;entryDy=0;" edge="1" parent="1" source="7-38Q2xxGo5Xg0WkYfj3-109" target="7-38Q2xxGo5Xg0WkYfj3-102">
          <mxGeometry relative="1" as="geometry" />
        </mxCell>
        <mxCell id="7-38Q2xxGo5Xg0WkYfj3-109" value="write_new_tag in cache" style="shape=process;whiteSpace=wrap;html=1;backgroundOutline=1;" vertex="1" parent="1">
          <mxGeometry x="630" y="620" width="115" height="30" as="geometry" />
        </mxCell>
        <mxCell id="7-38Q2xxGo5Xg0WkYfj3-123" style="edgeStyle=orthogonalEdgeStyle;rounded=0;orthogonalLoop=1;jettySize=auto;html=1;entryX=0.5;entryY=0;entryDx=0;entryDy=0;" edge="1" parent="1" source="7-38Q2xxGo5Xg0WkYfj3-116" target="7-38Q2xxGo5Xg0WkYfj3-107">
          <mxGeometry relative="1" as="geometry" />
        </mxCell>
        <mxCell id="7-38Q2xxGo5Xg0WkYfj3-116" value="write_new_tag in cache" style="shape=process;whiteSpace=wrap;html=1;backgroundOutline=1;" vertex="1" parent="1">
          <mxGeometry x="765" y="490" width="115" height="30" as="geometry" />
        </mxCell>
        <mxCell id="7-38Q2xxGo5Xg0WkYfj3-140" style="edgeStyle=orthogonalEdgeStyle;rounded=0;orthogonalLoop=1;jettySize=auto;html=1;entryX=1;entryY=0.5;entryDx=0;entryDy=0;entryPerimeter=0;" edge="1" parent="1" source="7-38Q2xxGo5Xg0WkYfj3-120" target="7-38Q2xxGo5Xg0WkYfj3-136">
          <mxGeometry relative="1" as="geometry">
            <Array as="points">
              <mxPoint x="688" y="780" />
            </Array>
          </mxGeometry>
        </mxCell>
        <mxCell id="7-38Q2xxGo5Xg0WkYfj3-120" value="dirty_bit=1" style="shape=process;whiteSpace=wrap;html=1;backgroundOutline=1;" vertex="1" parent="1">
          <mxGeometry x="630" y="720" width="115" height="30" as="geometry" />
        </mxCell>
        <mxCell id="7-38Q2xxGo5Xg0WkYfj3-142" style="edgeStyle=orthogonalEdgeStyle;rounded=0;orthogonalLoop=1;jettySize=auto;html=1;" edge="1" parent="1" source="7-38Q2xxGo5Xg0WkYfj3-124">
          <mxGeometry relative="1" as="geometry">
            <mxPoint x="690" y="780" as="targetPoint" />
            <Array as="points">
              <mxPoint x="823" y="780" />
            </Array>
          </mxGeometry>
        </mxCell>
        <mxCell id="7-38Q2xxGo5Xg0WkYfj3-124" value="read from memory" style="shape=process;whiteSpace=wrap;html=1;backgroundOutline=1;" vertex="1" parent="1">
          <mxGeometry x="765" y="610" width="115" height="30" as="geometry" />
        </mxCell>
        <mxCell id="7-38Q2xxGo5Xg0WkYfj3-132" style="edgeStyle=orthogonalEdgeStyle;rounded=0;orthogonalLoop=1;jettySize=auto;html=1;entryX=0.5;entryY=0;entryDx=0;entryDy=0;" edge="1" parent="1" source="7-38Q2xxGo5Xg0WkYfj3-127" target="7-38Q2xxGo5Xg0WkYfj3-128">
          <mxGeometry relative="1" as="geometry" />
        </mxCell>
        <mxCell id="7-38Q2xxGo5Xg0WkYfj3-127" value="write_new_tag in cache" style="shape=process;whiteSpace=wrap;html=1;backgroundOutline=1;" vertex="1" parent="1">
          <mxGeometry x="910" y="490" width="115" height="30" as="geometry" />
        </mxCell>
        <mxCell id="7-38Q2xxGo5Xg0WkYfj3-133" style="edgeStyle=orthogonalEdgeStyle;rounded=0;orthogonalLoop=1;jettySize=auto;html=1;entryX=0.5;entryY=0;entryDx=0;entryDy=0;" edge="1" parent="1" source="7-38Q2xxGo5Xg0WkYfj3-128" target="7-38Q2xxGo5Xg0WkYfj3-130">
          <mxGeometry relative="1" as="geometry" />
        </mxCell>
        <mxCell id="7-38Q2xxGo5Xg0WkYfj3-128" value="write_new_data in cache" style="shape=process;whiteSpace=wrap;html=1;backgroundOutline=1;" vertex="1" parent="1">
          <mxGeometry x="910" y="550" width="115" height="30" as="geometry" />
        </mxCell>
        <mxCell id="7-38Q2xxGo5Xg0WkYfj3-143" style="edgeStyle=orthogonalEdgeStyle;rounded=0;orthogonalLoop=1;jettySize=auto;html=1;" edge="1" parent="1" source="7-38Q2xxGo5Xg0WkYfj3-130">
          <mxGeometry relative="1" as="geometry">
            <mxPoint x="820" y="780" as="targetPoint" />
            <Array as="points">
              <mxPoint x="968" y="780" />
            </Array>
          </mxGeometry>
        </mxCell>
        <mxCell id="7-38Q2xxGo5Xg0WkYfj3-130" value="dirty_bit=1" style="shape=process;whiteSpace=wrap;html=1;backgroundOutline=1;" vertex="1" parent="1">
          <mxGeometry x="910" y="610" width="115" height="30" as="geometry" />
        </mxCell>
        <mxCell id="7-38Q2xxGo5Xg0WkYfj3-136" value="End&amp;nbsp;&lt;br&gt;Transaction" style="strokeWidth=2;html=1;shape=mxgraph.flowchart.terminator;whiteSpace=wrap;" vertex="1" parent="1">
          <mxGeometry x="215" y="750" width="100" height="60" as="geometry" />
        </mxCell>
      </root>
    </mxGraphModel>
  </diagram>
</mxfile>
